<svg version="1" xmlns="http://www.w3.org/2000/svg" width="370.667" height="370.667" viewBox="0 0 278.000000 278.000000"><path d="M116.5 2.6c-40.3 7.5-73.7 32.6-92 69.2C16.1 88.7 12 107 12 127.6c0 25.9 6.3 49 19.4 70.9 1.6 2.6 1.7 3.6.7 7.3l-1.2 4.3-5-.7-5.1-.7 3.6 5.1c5.8 8 16.1 18.7 24.9 25.7 4.5 3.6 8.4 6.5 8.8 6.5.4 0 2.1-2.2 3.9-5 1.8-2.7 3.4-5 3.6-5 .3 0 2.1 1.1 4.2 2.4 11.5 7.2 28.4 14 43.2 17.2 6.6 1.5 12.4 1.9 26 1.8 15.1-.1 19-.4 28.7-2.7 13.2-3 25.7-7.9 36.7-14.3l7.9-4.6 4.2 4.8 4.2 4.8 3.9-2.9c8.5-6.3 18.7-16.1 24.9-23.8 3.6-4.5 6.5-8.5 6.5-9 0-.4-2.1-.7-4.7-.5l-4.7.3-.9-4.1c-.9-3.8-.6-4.7 3.3-11.4 16.3-28 21.5-65.5 13.4-97.5-10-39.6-39.4-72.7-77.6-87.5-13.5-5.2-24.5-7.2-42.8-7.6-12.7-.2-19.7.1-25.5 1.2zM57 35.3c0 .2-1 1.2-2.2 2.3l-2.3 1.9 1.9-2.3c1.8-2.1 2.6-2.7 2.6-1.9zm30.6 4.2c13.5 3.5 21.5 7 24.6 10.8 2.4 2.8 2.6 2.9 2.1.9-.6-2.3-.5-2.3 5.8.8 9 4.5 11.9 6.8 12 9.3.1 2.2.1 2.1.8-.1.6-2.3.8-2.2 9.6 3.3 10.9 6.9 12.5 8.2 12.6 10.9 0 2 .1 2 .8.2.6-1.7 1.6-1.1 7.6 4.5 7.7 7.1 13.1 13 12.8 13.8-.1.3-.4 1.5-.8 2.6-.6 1.8-.6 1.9.5.2s1.3-1.6 3 .6c2.2 2.8 14 23.8 14 24.9 0 .5-.6.8-1.4.8-.8 0 4.1 5.4 10.8 12 12 11.7 12.3 12.2 13.3 17.8.7 3.5.7 5.9.1 6.3-.5.3-3.2-.2-6.1-1.1-5.1-1.6-5.3-1.9-13-14.1-4.3-6.8-7.6-11.2-7.2-9.8l.7 2.6-8.7-1.3c-7.6-1.3-21.4-5.8-25.5-8.4-1.2-.8-1-1.4 1.5-4 3.5-3.7 2.2-4-1.6-.4l-2.7 2.6-3.8-2.8c-2.1-1.6-5.7-5.4-8.1-8.4l-4.3-5.5 2.3-1.8c2.1-1.8 1.5-1.9-2.6-.2-.9.4-3.5-3.2-7.5-10.2-6.1-10.7-6.9-12.7-5.4-13.6.4-.2.2-.2-.5-.1-.7.2-3.8-3.6-6.9-8.4-3.1-4.8-6.5-9.7-7.7-11-1.1-1.2-1.7-2.2-1.3-2.2.4 0-2.4-2.7-6.2-6-7.8-6.7-19.9-13-30.3-15.7-3.8-.9-6.9-2.1-6.9-2.6 0-1.4 13.6.2 23.6 2.8zM209 37.4c0 .2-2.2 4.3-5 9.3-4.8 8.7-5.3 9.2-21 21.7l-16.2 12.9-2.1-2.2-2.2-2.2 5.5-5.2c3.1-2.9 4.4-4.3 3-3.2-1.4 1.1-3.9 3.2-5.6 4.8-3.1 2.8-3.2 2.8-5.8 1.2-3.3-2.2-4.2-1.1 15.1-17.9 14-12.1 15.4-13.1 23.8-16.1 9.5-3.4 10.5-3.7 10.5-3.1zM50 42.3c0 .2-1.2 1.4-2.7 2.8l-2.8 2.4 2.4-2.8c2.3-2.5 3.1-3.2 3.1-2.4zM41 53c-1.2 1.6-2.4 3-2.6 3-.3 0 .4-1.4 1.6-3 1.2-1.7 2.4-3 2.6-3 .3 0-.4 1.3-1.6 3zm88.4 46.6c.3.9.4 1.9.1 2.4-1 1.5-28.6 23.5-29.3 23.2-2.2-.8.8-4.2 13.3-15.1 7.6-6.6 14.2-12.1 14.6-12.1.4 0 1 .7 1.3 1.6zm3.4 5.6c.7.7 1.2 1.5 1.2 1.9 0 .4-6.6 6-14.6 12.4-11.1 8.9-14.8 11.4-15.5 10.4-.5-.8-.8-1.7-.6-2 .3-.9 27.1-23.9 27.7-23.9.3 0 1.1.5 1.8 1.2zm-37.3 18c8.4 8.7 16.5 20 16.5 22.8 0 2.2-2 4-4.4 4-1.1 0-4.3-2.3-7.1-5l-5.1-5.1-10.5 7.9c-5.7 4.3-11.4 8.4-12.6 9-2.9 1.6-5.2.6-6-2.5-.5-2.3.7-3.8 10.6-13L88 130.8l-4-5.5c-4.5-6.4-4.9-8.5-1.8-10.7 2.8-2 3.8-1.4 13.3 8.6zm84.1 43.6c5.7 12.3 11.2 24.9 12.3 28.1 3.2 9.7 4.5 20.3 3.8 31.4-.7 11.7-1 12.2-10.5 15.7-18.4 6.9-39.2 9.8-57.4 8-15.7-1.5-31-5.6-41.3-10.8l-5-2.6 6.8-.7c12.3-1.3 22.3-8.5 27.5-19.7 2.1-4.6 2.6-7.2 2.6-13.2 0-4.1-.6-9.2-1.3-11.3l-1.3-3.7h-9c-7.9 0-8.9-.2-7.8-1.5.9-1.1 3.3-1.5 8.7-1.5 4.7 0 7.2-.4 6.8-1-.3-.6-3.7-1-7.6-1-7.9 0-8.6.5-13.1 9.2l-2.7 5.3v-10c-.1-12.8 1.7-16.6 10-21 3.1-1.7 7.7-5.3 10.3-8.1 10.5-11.8 18.1-14.4 41.5-14.1l16.3.2 10.4 22.3z"/><path d="M133.5 73c1 1.1 2 2 2.3 2 .3 0-.3-.9-1.3-2s-2-2-2.3-2c-.3 0 .3.9 1.3 2zM144.4 81.9c16.5 15 37.4 36.7 37.8 39.1.2 1.5 1.1 2.6 2.5 3 1.2.3 6.1 5.2 10.8 11 4.8 5.8 9.6 11.4 10.8 12.5 2.5 2.5-8-11-14.4-18.5-2.6-3.1-4.9-6.7-5.1-8-.1-1.4-1.1-2.6-2.1-2.8-1-.2-5.9-4.6-11-9.9-5.1-5.2-14.4-14.1-20.7-19.6-13.8-12.1-18.3-15.7-8.6-6.8zM208 150.4c0 .2.8 1 1.8 1.7 1.5 1.3 1.6 1.2.3-.4s-2.1-2.1-2.1-1.3zM176.9 63.7c-1.3 1.6-1.2 1.7.4.4 1.6-1.3 2.1-2.1 1.3-2.1-.2 0-1 .8-1.7 1.7zM124.3 165.7c3.5.4 3.7.6 3.7 3.8 0 2.4.6 3.8 2 4.5 4.1 2.2 8.9-1.7 7.4-6.2-.5-1.8-.3-2 2.2-1.6 1.6.3 3.8.8 4.9 1.2 2 .8 2 .7.1-.8-1.6-1.3-4.3-1.6-13-1.4-6.1.1-9.4.3-7.3.5zM208 239.7c-5.2 3.7-20.3 10.7-30 13.7-23.4 7.4-54.6 7.4-78 0-9.4-2.9-22.3-8.6-28.7-12.7-2.4-1.5-4.7-2.7-5.1-2.7-1 0-8.2 10.4-8.2 11.7 0 2.5 20.4 12.5 35 17.3 16.1 5.3 28.3 7.2 46.4 7.1 19 0 31.6-2.2 50-8.7 9.7-3.4 25.2-11.4 31.5-16 .4-.4-8.2-12.3-8.9-12.3-.3 0-2.1 1.2-4 2.6zM82.3 250.6c.4.8 1.4 1.4 2.1 1.4.7 0 2.1.9 3.2 2.1 1.8 2 1.8 2.1-.1 3.5-1.7 1.3-1.8 1.7-.6 3.5 1 1.8 1 2-.1 1.7-.7-.2-1.7-1.4-2.3-2.6-1.1-2.4-3-3.1-2.1-.7.3.9 0 1.5-.8 1.5-2.3 0-2.5-1.1-.9-4.5 1.5-3.1 1.4-3.4-.4-5.4l-1.9-2.1-1.7 3.6c-1 1.9-1.5 4-1.2 4.5.9 1.4-.9 1.1-3.1-.6-1-.8-1.3-1.5-.7-1.5.7 0 2-1.4 2.8-3 1.8-3.5 1.1-5.8-1.1-3.9-1.5 1.2-1.7.9-.8-1.5.5-1.3 1.1-1.3 4.7.6 2.3 1.1 4.6 2.7 5 3.4zm122.1-4.2c-.3.8.2 2.8 1 4.5 2.5 4.7 2 5.1-3 3-2.5-1.2-4.8-1.9-5-1.6-.2.2.7 1.6 2 3 2.4 2.6 2.4 2.7.6 3.7-2.5 1.3-3 1.3-2.4-.4.7-1.8-2.4-7.8-3.6-7.1-.6.4-1 .2-1-.3 0-1.7 3.6-2 7-.6 4 1.7 5 1.1 2.6-1.5-1.7-1.8-1.7-2 .1-3 2.3-1.3 2.3-1.3 1.7.3zm-11.2 7.3c3.7 3.3 1 9.3-4.3 9.3-5.8 0-7.7-5.4-3.3-8.9 3.2-2.5 5.1-2.6 7.6-.4zm-99.7 1.9c1.1.5 1.3.9.5 1.4-.6.4-1.2 2-1.3 3.6-.2 2.3.2 3 2 3.2 1.8.3 2.3-.3 2.9-3.2.6-3.6 1.4-4.3 2.8-2.9.4.5 1.1.8 1.4.9 4.5.5 8.2 1.9 8.2 3 0 1.7-1.7 1.8-2.3.1-.8-2.1-2 .2-2.1 3.8-.1 2.5-.5 3.4-1.4 3-.8-.3-1.9-.5-2.5-.5-.9 0-.8-.3 0-.8.7-.4 1.6-2.3 1.9-4.2.6-2.8.5-3.2-.9-2.7-.9.3-1.8.1-2-.6-.3-.7-1 .2-1.7 2-1.3 3.7-4 4.9-7.1 3.3-1.7-1-2-1.7-1.4-4.3.4-1.8.7-3.8.8-4.5 0-1.4 0-1.4 2.2-.6zm87.9 1.9c.6 1.6-.9 2.1-1.9.5-.7-1.1-3.5-.2-3.5 1.1 0 .5 1.3.9 3 .9 3.9 0 5.7 3.1 3.1 5.4-2.2 2-5.7 2.1-6.4.1-.5-1.1 0-1.3 2.2-.9 1.6.4 3.2.1 3.5-.5.7-1.1.1-1.5-4.6-2.5-3-.7-3.6-2.4-1.6-4.4 1.7-1.7 5.5-1.5 6.2.3zm-9.7 5.9c2.9 4.1 3 4.4 1.2 4.9-1.4.4-1.9 0-1.9-1.5 0-1.3-.5-1.8-1.7-1.6-1.1.2-1.7 1.2-1.6 2.5.2 1.9-.5 2.2-8.3 3.3l-8.6 1.2-3-2.8-3.1-2.9.5 2.7c.3 1.6.2 2.8-.3 2.8-.4 0-1.6.3-2.6.7-1.5.5-1.6.4-.7-.8.8-.9.9-3 .5-6.1-.7-4.4-.6-4.7 1.8-5.1 3.6-.7 7.1.9 7.1 3.2 0 1.1-.6 2.2-1.2 2.5-.9.3-.6 1.1 1.1 2.5 1.3 1.2 2.7 2.1 3.2 2.1 1.2 0 1.1-6.7-.1-7.5-2.1-1.3-.8-2.1 3.5-2.4 2.5-.1 4.5.2 4.5.7 0 .5-1.1.7-2.5.4-1.9-.3-2.5 0-2.5 1.3 0 1.2.5 1.5 2 1 1.6-.5 2-.2 2 1.6s-.3 2-1.2 1.1c-1.8-1.8-2.8-1.5-2.8.8 0 2.4 3.2 2.7 5 .5 1-1.3 1.5-1.3 2.1-.3.9 1.5 1.4.4 2.4-5.5.3-2 .9-3.7 1.4-3.7.4 0 2.1 2 3.8 4.4zm-58.4-.3c-.5 1.7-.2 2 1.8 1.7 1.6-.2 2.3-.9 2.1-2-.2-1.2.3-1.5 1.8-1.1 1.6.4 1.8.8.9 1.9-.6.8-.9 2.7-.7 4.4.4 2.7.2 3-2.1 3-1.9 0-2.2-.3-1.3-1.2 2-2 1.4-3.8-1.4-3.8-2.1 0-2.5.4-2.1 2 .4 1.4 0 2-1.2 2-1.5 0-1.6-.5-.7-4.5.6-2.5 1.6-4.5 2.2-4.5.7 0 1 .8.7 2.1zm18.4 1.9c-.4 1.7-.2 3 .3 3 .6 0 1-.7 1-1.5s.7-1.5 1.5-1.5c1.3 0 1.3.4-.2 2.7-1.3 1.9-1.4 2.8-.5 3.1 2.8.9.9 1.7-3.4 1.4-4.8-.4-6.2-1.9-4.8-5 .7-1.6 1-2.4 1.3-4.5 0-.4 1.3-.7 2.7-.7 2.4 0 2.6.3 2.1 3z"/><path d="M83.5 254.9c-.7 1.2 1.2 2.4 2.5 1.6 1.1-.7.4-2.5-1-2.5-.5 0-1.1.4-1.5.9zM186 255.5c-1.5 1.9-.4 5.2 2.1 6 3.8 1.2 6.5-3.5 3.7-6.3-1.6-1.6-4.3-1.5-5.8.3zM144.4 263.6c.3.9.6 1.8.6 2 0 1.1 2.9.2 3.3-1 .7-1.8-.1-2.6-2.6-2.6-1.3 0-1.7.5-1.3 1.6zM127.5 268c-.7 1.2.2 3 1.6 3 1.2 0 1.2-2.7 0-3.5-.5-.3-1.2-.1-1.6.5z"/></svg>